<svg id="Layer_1" data-name="Layer 1" xmlns="http://www.w3.org/2000/svg" xmlns:xlink="http://www.w3.org/1999/xlink" viewBox="0 0 128.08 106.83"><defs><style>.cls-1{fill:#fff;}.cls-2{fill:url(#linear-gradient);}.cls-3{fill:url(#linear-gradient-2);}</style><linearGradient id="linear-gradient" x1="496.44" y1="456.52" x2="624.52" y2="456.52" gradientUnits="userSpaceOnUse"><stop offset="0" stop-color="#a1c83a"/><stop offset="1" stop-color="#046938"/></linearGradient><linearGradient id="linear-gradient-2" x1="585.39" y1="442.34" x2="586.69" y2="442.34" xlink:href="#linear-gradient"/></defs><title>leaf1</title><path class="cls-1" d="M498,501l5.39-9.52,1.61-12L507.58,462l6.16-21.21,7.63-14.63,14.56-15.61,11.62-4.34,11.2,0.14,9.94,3.43,8.12,4.62,5,6.51,3.71,7.77,1.05,5.81s0.72,3.91-.67,11c-0.09,0,0,.12,0,0.12l0.63,0.9,11.67,0.67,6.52,1L615,452.92l4,4.58,2.81,4.83,1.83,8.17,0.25,4.5-1.31,9.42-1.08,3.08s-4.85,21.88-33.73,21.5-60.75-9.5-84.12-7.87l-6,.38Z" transform="translate(-496.44 -403.11)"/><path class="cls-2" d="M621.17,458.66c-8.31-15.13-31.72-13.33-35.3-13-0.17.74-.35,1.48-0.58,2.23,0,0,26-3.31,34.78,12.19,3.6,6.37,7.3,25.26-7.2,40-20.51,20.83-75.57-4.07-114.07,1,0,0,6.72-9.59,7.14-16.94s2.73-48.79,26.68-68.79c21.54-18,54.34-2.31,54.05,23.53,2.64-28.95-32.58-47.29-55.46-27.62-24.64,21.18-27,65.05-27.45,72.83s-7.35,17.94-7.35,17.94c39.6-5.38,96.24,21,117.33-1.08C628.68,485.4,624.88,465.41,621.17,458.66Z" transform="translate(-496.44 -403.11)"/><path class="cls-3" d="M585.87,445.7a32.21,32.21,0,0,0,.82-6.79,36.78,36.78,0,0,1-1.29,6.84Z" transform="translate(-496.44 -403.11)"/></svg>